<?xml version="1.0" standalone="no"?>
<!DOCTYPE svg PUBLIC "-//W3C//DTD SVG 20010904//EN"
 "http://www.w3.org/TR/2001/REC-SVG-20010904/DTD/svg10.dtd">
<svg version="1.0" xmlns="http://www.w3.org/2000/svg"
 width="225.000000pt" height="225.000000pt" viewBox="0 0 225.000000 225.000000"
 preserveAspectRatio="xMidYMid meet">
<metadata>
Created by potrace 1.11, written by Peter Selinger 2001-2013
</metadata>
<g transform="translate(0.000000,225.000000) scale(0.100000,-0.100000)"
fill="#000000" stroke="none">
<path d="M945 2199 c-103 -15 -236 -57 -340 -108 -292 -144 -500 -394 -581
-697 -25 -93 -26 -107 -22 -293 5 -187 6 -200 36 -287 96 -285 292 -508 567
-647 233 -117 542 -148 805 -82 412 104 737 435 820 835 22 103 24 284 5 391
-92 520 -570 904 -1119 898 -61 -1 -138 -5 -171 -10z"/>
</g>
</svg>
